<svg fill="none" height="495" viewBox="0 0 945 495" width="945" xmlns="http://www.w3.org/2000/svg" xmlns:xlink="http://www.w3.org/1999/xlink"><clipPath id="clip0_5595_774"><path d="M0 0H945V495H0Z"/></clipPath><g clip-path="url(#clip0_5595_774)"><path d="M0 0H945V495H0Z" fill="#f8f8f8"/><path d="M85.8375 48.0929C85.8375 35.8975 95.7149 26.0111 107.899 26.0111H326.207C338.391 26.0111 348.269 35.8975 348.269 48.0929V71.2669H85.8375V48.0929Z" fill="#3e5fff"/><path d="M85.8375 48.0929C85.8375 35.8975 95.7149 26.0111 107.899 26.0111H326.207C338.391 26.0111 348.269 35.8975 348.269 48.0929V194.678C348.269 206.873 338.391 216.76 326.207 216.76H107.899C95.7149 216.76 85.8375 206.873 85.8375 194.678V48.0929Z" fill="#c3dcf4"/><path d="M85.8375 48.0929C85.8375 35.8975 95.7149 26.0111 107.899 26.0111H326.207C338.391 26.0111 348.269 35.8975 348.269 48.0929V71.2669H85.8375V48.0929Z" fill="#4680e1"/><ellipse cx="108.45" cy="48.639" fill="#ffffff" rx="7.53577" ry="7.54263"/><ellipse cx="131.047" cy="48.639" fill="#ffffff" rx="7.53577" ry="7.54263"/><ellipse cx="153.663" cy="48.639" fill="#ffffff" rx="7.53577" ry="7.54263"/><ellipse cx="466.876" cy="119.629" fill="#000000" rx="47.8581" ry="47.9016"/><path d="M501.56 91.5522 499.546 90.4884C498.796 90.0655 498.008 89.8339 497.137 89.6257 491.513 88.5779 486.622 93.3841 487.559 99L488.958 107.561C489.373 110.339 488.987 113.16 487.814 115.75L482.502 127.456C473.345 147.385 468.587 179.924 482.502 196.737L498.198 225.74 520.697 224.018C527.251 231.95 539.31 232.1 546.106 224.409 551.302 218.432 551.649 209.653 546.891 203.299L543.758 199.202C539.416 193.364 538.046 185.879 540.069 178.892L541.591 173.673C545.331 160.869 541.212 147.1 531.112 138.443L530.505 137.889C526.33 134.266 522.996 129.773 520.932 124.653L512.015 103.094C509.998 98.1425 506.339 94.1028 501.668 91.6126L501.56 91.5522Z" fill="#000000"/><path d="M421.005 106.877 412.307 130.278C410.237 135.855 406.892 140.832 402.585 144.855L401.944 145.463C391.49 155.166 387.664 170.06 392.141 183.586L394.002 189.131C396.43 196.515 395.281 204.607 390.836 210.982L387.688 215.517C382.806 222.472 383.552 231.905 389.387 238.088 396.978 246.098 409.877 245.384 416.535 236.678L447.432 196.437C461.671 177.859 464.072 152.745 453.591 131.817L447.413 119.462C446.051 116.75 445.523 113.713 445.888 110.759L446.991 101.586C447.706 95.5765 442.303 90.6297 436.372 91.9251 435.465 92.1038 434.637 92.4787 433.816 92.9045L431.658 94.1392C426.723 97.006 423.003 101.517 420.998 106.826L421.005 106.877Z" fill="#000000"/><path d="M551.905 411.31C551.905 467.915 543.088 582.499 543.088 582.499L444.808 573.044C444.808 573.044 457.117 546.92 451.771 542.836L456.757 411.31H551.905Z" fill="#3d3d3d"/><path d="M505.978 411.31 463.137 574.03H442.007L366.734 565.438 397.464 446.571 402.217 411.31H505.978Z" fill="#3d3d3d"/><path d="M565.108 411.554C564.848 415.331 561.708 418.262 557.922 418.262H416.77 400.091C397.752 418.262 395.754 416.577 395.359 414.271L369.2 261.537C375.199 246.149 386.104 233.163 400.201 224.609L430.432 206.245C433.997 204.079 438.095 202.933 442.269 202.933H502.346C506.52 202.933 510.619 204.079 514.183 206.245L544.414 224.609C558.512 233.163 569.417 246.149 575.416 261.537L570.031 339.9 565.108 411.554Z" fill="#dcc6ff"/><path d="M505.883 131.466V205.88C505.883 207.99 504.537 209.848 502.539 210.494L499.156 211.589C481.588 217.243 462.691 217.243 445.139 211.589L441.78 210.494C439.781 209.848 438.436 207.99 438.436 205.903V131.466H505.89 505.883Z" fill="#ffbd6e"/><path d="M505.883 165.858 505.883 185.791C499.22 190.878 490.904 193.855 481.904 193.855 475.075 193.855 468.655 192.146 463.046 189.091 461.22 188.098 462.259 185.272 464.296 185.665 466.83 186.185 469.45 186.461 472.132 186.461 486.364 186.461 498.897 177.197 505.883 165.858Z" fill="#e59a48"/><path d="M441.643 140.717C440.818 135.695 436.099 132.322 431.103 133.146 426.108 133.97 422.709 138.682 423.534 143.703 424.359 148.725 429.754 156.21 434.757 155.385 439.76 154.56 442.463 145.707 441.643 140.717Z" fill="#ffbd6e"/><path d="M515.637 128.525C514.812 123.504 510.092 120.131 505.089 120.956 500.086 121.781 496.695 126.492 497.52 131.513 498.345 136.534 503.74 144.02 508.743 143.195 513.746 142.37 516.457 133.516 515.637 128.525Z" fill="#ffbd6e"/><path d="M477.772 185.947C456.751 189.412 436.76 175.654 432.47 154.796L427.648 133.754C422.943 110.904 438.183 88.7187 461.177 84.9279 484.172 81.1371 505.7 97.2611 508.564 120.414L510.73 141.894C513.342 163.029 498.801 182.48 477.78 185.946L477.772 185.947Z" fill="#ffbd6e"/><g fill="#000000"><path d="M473.996 159.021C473.189 158.941 472.53 159.438 472.405 160.147 472.269 160.886 472.775 161.609 473.514 161.738 473.857 161.795 474.208 161.846 474.553 161.88 481.191 162.538 488.21 158.314 490.557 152.264 490.686 151.921 490.676 151.547 490.527 151.208 490.379 150.868 490.111 150.612 489.761 150.474 489.647 150.423 489.53 150.404 489.397 150.391 488.778 150.329 488.196 150.692 487.972 151.271 486.058 156.223 480.287 159.676 474.808 159.133 474.534 159.106 474.252 159.078 473.981 159.011L473.98 159.027 473.996 159.021Z"/><path d="M457.775 125.104C458.256 124.585 458.497 123.867 458.368 123.129 458.15 121.902 456.981 121.056 455.739 121.269 455.498 121.31 450.264 122.243 446.109 127.074 445.278 128.034 445.385 129.462 446.346 130.311 447.304 131.135 448.747 131.026 449.579 130.066 452.612 126.522 456.47 125.823 456.519 125.814 457.015 125.725 457.439 125.439 457.775 125.104Z"/><path d="M478.962 121.613C478.34 121.276 477.882 120.673 477.768 119.932 477.581 118.701 478.417 117.524 479.662 117.327 479.904 117.289 485.16 116.493 490.643 119.737 491.738 120.379 492.094 121.767 491.455 122.879 490.812 123.967 489.41 124.326 488.314 123.684 484.307 121.3 480.429 121.876 480.379 121.883 479.881 121.957 479.388 121.823 478.962 121.613Z"/><path d="M461.831 138.077C462.114 139.803 459.48 138.718 456.53 139.204 453.58 139.691 451.432 141.564 451.148 139.838 450.864 138.112 453.026 136.318 455.976 135.832 458.925 135.346 461.547 136.351 461.831 138.077Z"/><path d="M490.639 133.331C490.923 135.057 488.288 133.972 485.338 134.458 482.388 134.944 480.24 136.818 479.957 135.092 479.673 133.365 481.834 131.572 484.784 131.085 487.734 130.599 490.355 131.604 490.639 133.331Z"/><path d="M508.538 119.946 507.011 110.663 506.98 110.669C503.303 88.3095 482.189 73.1432 459.835 76.8262 437.48 80.5092 422.329 101.65 426.006 124.009L427.529 133.269C427.818 135.026 429.478 136.245 431.249 135.954 433.02 135.662 434.21 133.973 433.921 132.216 433.744 131.135 433.617 130.022 433.542 128.892 431.815 118.39 443.526 112.283 453.697 109.178 465.917 105.448 477.373 97.3879 476.161 90.0191 477.34 97.1878 481.353 104.573 486.89 107.455 492.626 110.44 500.515 111.085 501.565 117.47L502.145 120.999C502.436 122.764 504.099 123.951 505.862 123.661 507.625 123.37 508.828 121.711 508.538 119.946Z"/></g><path d="M291.138 302.303C278.326 290.855 246.094 283.984 234.575 281.827 232.676 281.474 231.814 279.233 232.993 277.695 233.449 277.086 234.153 276.719 234.917 276.676L277.54 274.258C287.445 273.696 297.166 277.091 304.566 283.704L312.223 292.034 291.138 302.313 291.138 302.303Z" fill="#ffbd6e"/><path d="M661.875 291.012 647.7 308.857 634.414 293.097 640.552 285.211 639.063 264.55C638.932 262.729 639.591 260.94 640.871 259.638L651.428 248.906C654.885 245.391 660.853 246.981 662.102 251.75L666.56 268.764C668.587 276.504 666.852 284.747 661.875 291.012Z" fill="#ffbd6e"/><path d="M654.124 300.76 628.916 289.347C627.619 288.822 626.146 289.469 625.653 290.779L604.309 332.599 574.06 258.651 525.686 359.031 586.625 407.613C608.344 419.331 643.214 401.285 646.884 372.606L654.124 300.76Z" fill="#dcc6ff"/><path d="M289.213 300.761 315.359 290.918C316.655 290.394 318.129 291.041 318.622 292.351L338.428 338.006 370.155 259.268 422.453 365.038 358.69 407.314C331.298 419.153 301.001 401.902 297.332 373.223L289.213 300.761Z" fill="#dcc6ff"/><path d="M700.321 186.076 719.132 213.374 576.131 317.87C566.436 324.955 552.813 322.642 546 312.755V312.755C539.187 302.868 541.867 289.301 551.927 282.747L700.321 186.076Z" fill="#3d3d3d"/><rect fill="#ffbd6e" height="14.0375" rx="7.01873" transform="matrix(.567423 .823426 -.822944 .568123 668.225 196.471)" width="52.5138"/><path clip-rule="evenodd" d="M852.606 131.657C851.783 127.72 848.059 125.086 844.073 125.623L840.367 126.121C837.107 126.56 833.963 124.852 832.297 122.015 830.522 118.992 828.556 116.111 826.417 113.386 824.403 110.82 823.954 107.305 825.516 104.442L827.391 101.007C829.306 97.4974 828.205 93.1052 824.86 90.9147L805.702 78.3687C802.353 76.1756 797.881 76.9263 795.432 80.0927L793.052 83.1696C791.054 85.7531 787.647 86.7511 784.486 85.9307 781.162 85.068 777.765 84.4217 774.316 84.0045 771.076 83.6126 768.271 81.4421 767.353 78.31L766.257 74.5726C765.131 70.7324 761.242 68.4029 757.325 69.2223L734.919 73.9089C731.004 74.7278 728.375 78.4173 728.88 82.385L729.372 86.2583C729.784 89.4944 728.084 92.6045 725.273 94.261 722.278 96.0266 719.423 97.9812 716.72 100.105 714.152 102.124 710.631 102.574 707.765 101.007L704.356 99.1436C700.844 97.2232 696.446 98.3264 694.256 101.677L681.718 120.857C679.53 124.203 680.28 128.669 683.44 131.118L686.529 133.511C689.107 135.509 690.103 138.911 689.285 142.069 688.421 145.402 687.774 148.808 687.356 152.266 686.966 155.506 684.797 158.31 681.666 159.23L677.932 160.326C674.095 161.454 671.768 165.339 672.585 169.254L677.27 191.694C678.088 195.611 681.779 198.242 685.749 197.736L689.599 197.245C692.837 196.833 695.95 198.535 697.606 201.349 699.384 204.371 701.353 207.25 703.495 209.974 705.526 212.557 705.969 216.104 704.375 218.978L702.544 222.275C700.594 225.789 701.687 230.213 705.049 232.415L724.122 244.906C727.488 247.11 731.986 246.339 734.425 243.138L736.697 240.157C738.692 237.54 742.125 236.524 745.31 237.353 748.68 238.231 752.125 238.887 755.623 239.307 758.888 239.698 761.712 241.896 762.615 245.058L763.645 248.667C764.749 252.535 768.654 254.894 772.592 254.07L794.899 249.404C798.834 248.581 801.466 244.859 800.931 240.874L800.429 237.144C799.992 233.886 801.698 230.744 804.531 229.078 807.57 227.29 810.466 225.308 813.204 223.152 815.789 221.115 819.342 220.671 822.219 222.271L825.49 224.09C829.007 226.045 833.437 224.951 835.638 221.583L848.121 202.488C850.32 199.123 849.55 194.632 846.355 192.193L843.362 189.908C840.75 187.913 839.736 184.485 840.563 181.304 841.443 177.925 842.099 174.471 842.519 170.962 842.91 167.698 845.105 164.875 848.266 163.971L851.87 162.941C855.735 161.835 858.092 157.933 857.27 153.997L852.606 131.657ZM708.318 173.493C714.852 204.789 745.497 224.858 776.765 218.318 808.032 211.778 828.083 181.105 821.548 149.809 815.014 118.513 784.37 98.4444 753.102 104.985 721.834 111.525 701.784 142.197 708.318 173.493Z" fill="#ffbd6e" fill-rule="evenodd"/><path clip-rule="evenodd" d="M438.991 318.728C436.2 317.979 435.104 314.604 436.924 312.359L478.703 260.824C481.416 257.478 486.773 260.208 485.659 264.369L473.9 308.294C473.33 310.423 474.593 312.611 476.721 313.181L496.136 318.388C498.927 319.137 500.022 322.512 498.202 324.757L456.424 376.292C453.711 379.638 448.354 376.908 449.468 372.747L461.227 328.822C461.797 326.693 460.534 324.505 458.405 323.935L438.991 318.728Z" fill="#bca4ea" fill-rule="evenodd"/><path d="M50.4 109.574C50.4 97.3784 60.2774 87.492 72.4617 87.492H290.769C302.954 87.492 312.831 97.3784 312.831 109.574V256.159C312.831 268.354 302.954 278.24 290.769 278.24H72.4617C60.2774 278.24 50.4 268.354 50.4 256.159V109.574Z" fill="#ffffff"/><path d="M50.4 109.574C50.4 97.3784 60.2774 87.492 72.4617 87.492H290.769C302.954 87.492 312.831 97.3784 312.831 109.574V132.748H50.4V109.574Z" fill="#ffbd6e"/><ellipse cx="73.0121" cy="110.12" fill="#ffffff" rx="7.53577" ry="7.54263"/><ellipse cx="95.6097" cy="110.12" fill="#ffffff" rx="7.53577" ry="7.54263"/><ellipse cx="118.226" cy="110.12" fill="#ffffff" rx="7.53577" ry="7.54263"/><rect fill="#e2f1ff" height="78.8217" rx="11.8125" width="78.75" x="63.7875" y="182.866"/><rect fill="#e2f1ff" height="22.0701" rx="11.025" width="236.25" x="63.7875" y="148.185"/><rect fill="#e2f1ff" height="22.0701" rx="11.035" width="145.688" x="154.35" y="182.866"/><path d="M638.616 287.699H664.104C667.326 281.986 668.243 275.19 666.554 268.744L662.102 251.751C660.853 246.981 654.887 245.389 651.43 248.903L640.873 259.636C639.591 260.939 638.932 262.731 639.064 264.555L640.552 285.211 638.616 287.699Z" fill="#ffbd6e"/></g></svg>